# xmcd CD database file
#
# Track frame offsets:
#	150
#	23416
#	37981
#
# Disc length: 1961 seconds
#
# Revision: 0
# Processed by: cddbd v1.5.1PL0 Copyright (c) Steve Scherf et al.
# Submitted via: CDex 1.51
#
DISCID=1307a703
DTITLE=Phish - Fayston 7-2-95 Disc 3
DYEAR=1995
DGENRE=Blues
TTITLE0=Halleys Comet
TTITLE1=Tweezer Reprise
TTITLE2=Unknown
EXTD=YEAR: 1995
EXTT0=
EXTT1=
EXTT2=
PLAYORDER=
